<svg width="22" height="22" viewBox="0 0 22 22" fill="none" xmlns="http://www.w3.org/2000/svg">
<path d="M14.6667 3.66846C16.6604 3.67956 17.7402 3.76797 18.4445 4.47232C19.25 5.27778 19.25 6.57414 19.25 9.16686V14.6669C19.25 17.2596 19.25 18.556 18.4445 19.3614C17.6391 20.1669 16.3427 20.1669 13.75 20.1669H8.25C5.65728 20.1669 4.36091 20.1669 3.55546 19.3614C2.75 18.556 2.75 17.2596 2.75 14.6669V9.16686C2.75 6.57414 2.75 5.27778 3.55546 4.47232C4.25981 3.76797 5.33956 3.67956 7.33333 3.66846" stroke="#121212" stroke-width="1.2"/>
<path d="M9.625 12.8335L15.5833 12.8335" stroke="#121212" stroke-width="1.2" stroke-linecap="round"/>
<path d="M6.41602 12.833H6.87435" stroke="#121212" stroke-width="1.2" stroke-linecap="round"/>
<path d="M6.41602 9.625H6.87435" stroke="#121212" stroke-width="1.2" stroke-linecap="round"/>
<path d="M6.41602 16.042H6.87435" stroke="#121212" stroke-width="1.2" stroke-linecap="round"/>
<path d="M9.625 9.625H15.5833" stroke="#121212" stroke-width="1.2" stroke-linecap="round"/>
<path d="M9.625 16.0415H15.5833" stroke="#121212" stroke-width="1.2" stroke-linecap="round"/>
<path d="M7.33398 3.20801C7.33398 2.44862 7.94959 1.83301 8.70898 1.83301H13.2923C14.0517 1.83301 14.6673 2.44862 14.6673 3.20801V4.12467C14.6673 4.88407 14.0517 5.49967 13.2923 5.49967H8.70898C7.94959 5.49967 7.33398 4.88407 7.33398 4.12467V3.20801Z" stroke="#121212" stroke-width="1.2"/>
</svg>
