<svg width="10" height="10" viewBox="0 0 10 10" fill="none" xmlns="http://www.w3.org/2000/svg">
<g clip-path="url(#clip0_2209_75763)">
<path d="M3.86127 2.36335C4.36793 1.45445 4.62126 1 5 1C5.37874 1 5.63207 1.45445 6.13873 2.36335L6.26981 2.59849C6.41379 2.85677 6.48578 2.98591 6.59802 3.07112C6.71027 3.15633 6.85006 3.18796 7.12965 3.25122L7.38418 3.30881C8.36806 3.53142 8.85999 3.64273 8.97703 4.01909C9.09407 4.39546 8.7587 4.78763 8.08796 5.57197L7.91443 5.77489C7.72383 5.99777 7.62853 6.10922 7.58566 6.24709C7.54278 6.38496 7.55719 6.53364 7.58601 6.83102L7.61224 7.10176C7.71365 8.14824 7.76435 8.67148 7.45794 8.90409C7.15153 9.13669 6.69093 8.92462 5.76973 8.50047L5.53141 8.39073C5.26963 8.2702 5.13874 8.20994 5 8.20994C4.86126 8.20994 4.73037 8.2702 4.46859 8.39073L4.23027 8.50047C3.30907 8.92462 2.84847 9.13669 2.54206 8.90409C2.23565 8.67148 2.28635 8.14824 2.38776 7.10176L2.41399 6.83102C2.44281 6.53364 2.45722 6.38496 2.41435 6.24709C2.37147 6.10922 2.27617 5.99777 2.08557 5.77489L1.91204 5.57197C1.2413 4.78763 0.90593 4.39546 1.02297 4.01909C1.14001 3.64273 1.63194 3.53142 2.61581 3.30881L2.87035 3.25122C3.14994 3.18796 3.28973 3.15633 3.40198 3.07112C3.51422 2.98591 3.58621 2.85677 3.73019 2.59849L3.86127 2.36335Z" stroke="#121212" stroke-opacity="0.4" stroke-width="0.75"/>
</g>
<defs>
<clipPath id="clip0_2209_75763">
<rect width="10" height="10" fill="white"/>
</clipPath>
</defs>
</svg>
